# xmcd
#
# Track frame offsets: 
#        150
#        15126
#        34242
#        47994
#        62927
#        77768
#        92110
#        114929
#        126555
#        142567
#        154976
#        174230
#
# Disc length: 2501 seconds
#
# Revision: 0
# Processed by: cddbd v1.5.2PL0 Copyright (c) Steve Scherf et al.
# Submitted via: ExactAudioCopy v0.95b4
#
DISCID=9409c30c
DTITLE=Slidin' Slim - One Man Riot
DYEAR=2007
DGENRE=Blues
TTITLE0=Brand New Face
TTITLE1=Devil in Disguise
TTITLE2=God Knows I Tried
TTITLE3=They Call Me Mr Misfit
TTITLE4=Rescue Me
TTITLE5=It Ain't Right
TTITLE6=Lead to My Grave
TTITLE7=You Called Me up
TTITLE8=Please Tell Me
TTITLE9=You've Been a Waste of Time
TTITLE10=Somebody Wish That I was Dead
TTITLE11=Screwed
EXTD=
EXTT0=
EXTT1=
EXTT2=
EXTT3=
EXTT4=
EXTT5=
EXTT6=
EXTT7=
EXTT8=
EXTT9=
EXTT10=
EXTT11=
PLAYORDER=
